<svg width="263" height="296" viewBox="0 0 263 296" fill="none" xmlns="http://www.w3.org/2000/svg">
<rect width="263" height="296" rx="8" fill="white" fill-opacity="0.04"/>
<path d="M26 25.25L20.5 30.75L18 28.25" stroke="white" stroke-width="1.5" stroke-linecap="round" stroke-linejoin="round"/>
<path fill-rule="evenodd" clip-rule="evenodd" d="M54 36H42C40.895 36 40 35.105 40 34V22C40 20.895 40.895 20 42 20H54C55.105 20 56 20.895 56 22V34C56 35.105 55.105 36 54 36Z" stroke="white" stroke-width="1.5" stroke-linecap="round" stroke-linejoin="round"/>
<path d="M75.104 34L72.448 29.44H70.688V34H69.232V22.848H72.832C73.6747 22.848 74.384 22.992 74.96 23.28C75.5467 23.568 75.984 23.9573 76.272 24.448C76.56 24.9387 76.704 25.4987 76.704 26.128C76.704 26.896 76.48 27.5733 76.032 28.16C75.5947 28.7467 74.9333 29.136 74.048 29.328L76.848 34H75.104ZM70.688 28.272H72.832C73.6213 28.272 74.2133 28.08 74.608 27.696C75.0027 27.3013 75.2 26.7787 75.2 26.128C75.2 25.4667 75.0027 24.9547 74.608 24.592C74.224 24.2293 73.632 24.048 72.832 24.048H70.688V28.272ZM86.9664 29.28C86.9664 29.5573 86.9504 29.8507 86.9184 30.16H79.9104C79.9637 31.024 80.257 31.7013 80.7904 32.192C81.3344 32.672 81.9904 32.912 82.7584 32.912C83.3877 32.912 83.9104 32.768 84.3264 32.48C84.753 32.1813 85.0517 31.7867 85.2224 31.296H86.7904C86.5557 32.1387 86.0864 32.8267 85.3824 33.36C84.6784 33.8827 83.8037 34.144 82.7584 34.144C81.9264 34.144 81.1797 33.9573 80.5184 33.584C79.8677 33.2107 79.3557 32.6827 78.9824 32C78.609 31.3067 78.4224 30.5067 78.4224 29.6C78.4224 28.6933 78.6037 27.8987 78.9664 27.216C79.329 26.5333 79.8357 26.0107 80.4864 25.648C81.1477 25.2747 81.905 25.088 82.7584 25.088C83.5904 25.088 84.3264 25.2693 84.9664 25.632C85.6064 25.9947 86.097 26.496 86.4384 27.136C86.7904 27.7653 86.9664 28.48 86.9664 29.28ZM85.4624 28.976C85.4624 28.4213 85.3397 27.9467 85.0944 27.552C84.849 27.1467 84.513 26.8427 84.0864 26.64C83.6704 26.4267 83.2064 26.32 82.6944 26.32C81.9584 26.32 81.329 26.5547 80.8064 27.024C80.2944 27.4933 80.001 28.144 79.9264 28.976H85.4624ZM88.3443 29.6C88.3443 28.6933 88.5256 27.904 88.8883 27.232C89.2509 26.5493 89.7523 26.0213 90.3923 25.648C91.0429 25.2747 91.7843 25.088 92.6163 25.088C93.6936 25.088 94.5789 25.3493 95.2723 25.872C95.9763 26.3947 96.4403 27.12 96.6643 28.048H95.0963C94.9469 27.5147 94.6536 27.0933 94.2163 26.784C93.7896 26.4747 93.2563 26.32 92.6163 26.32C91.7843 26.32 91.1123 26.608 90.6003 27.184C90.0883 27.7493 89.8323 28.5547 89.8323 29.6C89.8323 30.656 90.0883 31.472 90.6003 32.048C91.1123 32.624 91.7843 32.912 92.6163 32.912C93.2563 32.912 93.7896 32.7627 94.2163 32.464C94.6429 32.1653 94.9363 31.7387 95.0963 31.184H96.6643C96.4296 32.08 95.9603 32.8 95.2563 33.344C94.5523 33.8773 93.6723 34.144 92.6163 34.144C91.7843 34.144 91.0429 33.9573 90.3923 33.584C89.7523 33.2107 89.2509 32.6827 88.8883 32C88.5256 31.3173 88.3443 30.5173 88.3443 29.6ZM100.383 26.432V31.6C100.383 32.0267 100.474 32.3307 100.655 32.512C100.836 32.6827 101.151 32.768 101.599 32.768H102.671V34H101.359C100.548 34 99.9403 33.8133 99.535 33.44C99.1297 33.0667 98.927 32.4533 98.927 31.6V26.432H97.791V25.232H98.927V23.024H100.383V25.232H102.671V26.432H100.383ZM103.891 29.584C103.891 28.688 104.072 27.904 104.435 27.232C104.798 26.5493 105.294 26.0213 105.923 25.648C106.563 25.2747 107.272 25.088 108.051 25.088C108.819 25.088 109.486 25.2533 110.051 25.584C110.616 25.9147 111.038 26.3307 111.315 26.832V25.232H112.787V34H111.315V32.368C111.027 32.88 110.595 33.3067 110.019 33.648C109.454 33.9787 108.792 34.144 108.035 34.144C107.256 34.144 106.552 33.952 105.923 33.568C105.294 33.184 104.798 32.6453 104.435 31.952C104.072 31.2587 103.891 30.4693 103.891 29.584ZM111.315 29.6C111.315 28.9387 111.182 28.3627 110.915 27.872C110.648 27.3813 110.286 27.008 109.827 26.752C109.379 26.4853 108.883 26.352 108.339 26.352C107.795 26.352 107.299 26.48 106.851 26.736C106.403 26.992 106.046 27.3653 105.779 27.856C105.512 28.3467 105.379 28.9227 105.379 29.584C105.379 30.256 105.512 30.8427 105.779 31.344C106.046 31.8347 106.403 32.2133 106.851 32.48C107.299 32.736 107.795 32.864 108.339 32.864C108.883 32.864 109.379 32.736 109.827 32.48C110.286 32.2133 110.648 31.8347 110.915 31.344C111.182 30.8427 111.315 30.2613 111.315 29.6ZM119.52 25.072C120.586 25.072 121.45 25.3973 122.112 26.048C122.773 26.688 123.104 27.616 123.104 28.832V34H121.664V29.04C121.664 28.1653 121.445 27.4987 121.008 27.04C120.57 26.5707 119.973 26.336 119.216 26.336C118.448 26.336 117.834 26.576 117.376 27.056C116.928 27.536 116.704 28.2347 116.704 29.152V34H115.248V25.232H116.704V26.48C116.992 26.032 117.381 25.6853 117.872 25.44C118.373 25.1947 118.922 25.072 119.52 25.072ZM129.098 25.088C129.855 25.088 130.517 25.2533 131.082 25.584C131.658 25.9147 132.085 26.3307 132.362 26.832V25.232H133.834V34.192C133.834 34.992 133.663 35.7013 133.322 36.32C132.981 36.9493 132.49 37.44 131.85 37.792C131.221 38.144 130.485 38.32 129.642 38.32C128.49 38.32 127.53 38.048 126.762 37.504C125.994 36.96 125.541 36.2187 125.402 35.28H126.842C127.002 35.8133 127.333 36.24 127.834 36.56C128.335 36.8907 128.938 37.056 129.642 37.056C130.442 37.056 131.093 36.8053 131.594 36.304C132.106 35.8027 132.362 35.0987 132.362 34.192V32.352C132.074 32.864 131.647 33.2907 131.082 33.632C130.517 33.9733 129.855 34.144 129.098 34.144C128.319 34.144 127.61 33.952 126.97 33.568C126.341 33.184 125.845 32.6453 125.482 31.952C125.119 31.2587 124.938 30.4693 124.938 29.584C124.938 28.688 125.119 27.904 125.482 27.232C125.845 26.5493 126.341 26.0213 126.97 25.648C127.61 25.2747 128.319 25.088 129.098 25.088ZM132.362 29.6C132.362 28.9387 132.229 28.3627 131.962 27.872C131.695 27.3813 131.333 27.008 130.874 26.752C130.426 26.4853 129.93 26.352 129.386 26.352C128.842 26.352 128.346 26.48 127.898 26.736C127.45 26.992 127.093 27.3653 126.826 27.856C126.559 28.3467 126.426 28.9227 126.426 29.584C126.426 30.256 126.559 30.8427 126.826 31.344C127.093 31.8347 127.45 32.2133 127.898 32.48C128.346 32.736 128.842 32.864 129.386 32.864C129.93 32.864 130.426 32.736 130.874 32.48C131.333 32.2133 131.695 31.8347 131.962 31.344C132.229 30.8427 132.362 30.2613 132.362 29.6ZM137.751 22.16V34H136.295V22.16H137.751ZM148.232 29.28C148.232 29.5573 148.216 29.8507 148.184 30.16H141.176C141.229 31.024 141.523 31.7013 142.056 32.192C142.6 32.672 143.256 32.912 144.024 32.912C144.653 32.912 145.176 32.768 145.592 32.48C146.019 32.1813 146.317 31.7867 146.488 31.296H148.056C147.821 32.1387 147.352 32.8267 146.648 33.36C145.944 33.8827 145.069 34.144 144.024 34.144C143.192 34.144 142.445 33.9573 141.784 33.584C141.133 33.2107 140.621 32.6827 140.248 32C139.875 31.3067 139.688 30.5067 139.688 29.6C139.688 28.6933 139.869 27.8987 140.232 27.216C140.595 26.5333 141.101 26.0107 141.752 25.648C142.413 25.2747 143.171 25.088 144.024 25.088C144.856 25.088 145.592 25.2693 146.232 25.632C146.872 25.9947 147.363 26.496 147.704 27.136C148.056 27.7653 148.232 28.48 148.232 29.28ZM146.728 28.976C146.728 28.4213 146.605 27.9467 146.36 27.552C146.115 27.1467 145.779 26.8427 145.352 26.64C144.936 26.4267 144.472 26.32 143.96 26.32C143.224 26.32 142.595 26.5547 142.072 27.024C141.56 27.4933 141.267 28.144 141.192 28.976H146.728Z" fill="white"/>
<path opacity="0.5" d="M244.37 34L241.714 29.44H239.954V34H238.498V22.848H242.098C242.94 22.848 243.65 22.992 244.226 23.28C244.812 23.568 245.25 23.9573 245.538 24.448C245.826 24.9387 245.97 25.4987 245.97 26.128C245.97 26.896 245.746 27.5733 245.298 28.16C244.86 28.7467 244.199 29.136 243.314 29.328L246.114 34H244.37ZM239.954 28.272H242.098C242.887 28.272 243.479 28.08 243.874 27.696C244.268 27.3013 244.466 26.7787 244.466 26.128C244.466 25.4667 244.268 24.9547 243.874 24.592C243.49 24.2293 242.898 24.048 242.098 24.048H239.954V28.272Z" fill="white"/>
<path d="M36 76.5L53 59.5" stroke="white"/>
<path d="M63.688 72.816H67.592V74H62.232V62.848H63.688V72.816ZM69.8903 63.808C69.6129 63.808 69.3783 63.712 69.1863 63.52C68.9943 63.328 68.8983 63.0933 68.8983 62.816C68.8983 62.5387 68.9943 62.304 69.1863 62.112C69.3783 61.92 69.6129 61.824 69.8903 61.824C70.1569 61.824 70.3809 61.92 70.5623 62.112C70.7543 62.304 70.8503 62.5387 70.8503 62.816C70.8503 63.0933 70.7543 63.328 70.5623 63.52C70.3809 63.712 70.1569 63.808 69.8903 63.808ZM70.5943 65.232V74H69.1383V65.232H70.5943ZM77.3478 65.072C78.4144 65.072 79.2784 65.3973 79.9398 66.048C80.6011 66.688 80.9318 67.616 80.9318 68.832V74H79.4918V69.04C79.4918 68.1653 79.2731 67.4987 78.8358 67.04C78.3984 66.5707 77.8011 66.336 77.0438 66.336C76.2758 66.336 75.6624 66.576 75.2038 67.056C74.7558 67.536 74.5318 68.2347 74.5318 69.152V74H73.0758V65.232H74.5318V66.48C74.8198 66.032 75.2091 65.6853 75.6998 65.44C76.2011 65.1947 76.7504 65.072 77.3478 65.072ZM91.3101 69.28C91.3101 69.5573 91.2941 69.8507 91.2621 70.16H84.2541C84.3075 71.024 84.6008 71.7013 85.1341 72.192C85.6781 72.672 86.3341 72.912 87.1021 72.912C87.7315 72.912 88.2541 72.768 88.6701 72.48C89.0968 72.1813 89.3955 71.7867 89.5661 71.296H91.1341C90.8995 72.1387 90.4301 72.8267 89.7261 73.36C89.0221 73.8827 88.1475 74.144 87.1021 74.144C86.2701 74.144 85.5235 73.9573 84.8621 73.584C84.2115 73.2107 83.6995 72.6827 83.3261 72C82.9528 71.3067 82.7661 70.5067 82.7661 69.6C82.7661 68.6933 82.9475 67.8987 83.3101 67.216C83.6728 66.5333 84.1795 66.0107 84.8301 65.648C85.4915 65.2747 86.2488 65.088 87.1021 65.088C87.9341 65.088 88.6701 65.2693 89.3101 65.632C89.9501 65.9947 90.4408 66.496 90.7821 67.136C91.1341 67.7653 91.3101 68.48 91.3101 69.28ZM89.8061 68.976C89.8061 68.4213 89.6835 67.9467 89.4381 67.552C89.1928 67.1467 88.8568 66.8427 88.4301 66.64C88.0141 66.4267 87.5501 66.32 87.0381 66.32C86.3021 66.32 85.6728 66.5547 85.1501 67.024C84.6381 67.4933 84.3448 68.144 84.2701 68.976H89.8061Z" fill="white"/>
<path opacity="0.5" d="M242.782 72.816H246.686V74H241.326V62.848H242.782V72.816Z" fill="white"/>
<path d="M53.5 99.5C53.5 99.2239 53.2761 99 53 99H48.5C48.2239 99 48 99.2239 48 99.5C48 99.7761 48.2239 100 48.5 100H52.5V104C52.5 104.276 52.7239 104.5 53 104.5C53.2761 104.5 53.5 104.276 53.5 104V99.5ZM36.3536 116.854L53.3536 99.8536L52.6464 99.1464L35.6464 116.146L36.3536 116.854Z" fill="white"/>
<path d="M68.824 111.52H63.96L63.064 114H61.528L65.56 102.912H67.24L71.256 114H69.72L68.824 111.52ZM68.408 110.336L66.392 104.704L64.376 110.336H68.408ZM74.4693 106.656C74.7253 106.155 75.0879 105.765 75.5573 105.488C76.0373 105.211 76.6186 105.072 77.3013 105.072V106.576H76.9173C75.2853 106.576 74.4693 107.461 74.4693 109.232V114H73.0133V105.232H74.4693V106.656ZM80.438 106.656C80.694 106.155 81.0567 105.765 81.526 105.488C82.006 105.211 82.5873 105.072 83.27 105.072V106.576H82.886C81.254 106.576 80.438 107.461 80.438 109.232V114H78.982V105.232H80.438V106.656ZM88.7748 114.144C87.9534 114.144 87.2068 113.957 86.5348 113.584C85.8734 113.211 85.3508 112.683 84.9668 112C84.5934 111.307 84.4068 110.507 84.4068 109.6C84.4068 108.704 84.5988 107.915 84.9828 107.232C85.3774 106.539 85.9108 106.011 86.5828 105.648C87.2548 105.275 88.0068 105.088 88.8388 105.088C89.6708 105.088 90.4228 105.275 91.0948 105.648C91.7668 106.011 92.2948 106.533 92.6788 107.216C93.0734 107.899 93.2708 108.693 93.2708 109.6C93.2708 110.507 93.0681 111.307 92.6628 112C92.2681 112.683 91.7294 113.211 91.0468 113.584C90.3641 113.957 89.6068 114.144 88.7748 114.144ZM88.7748 112.864C89.2974 112.864 89.7881 112.741 90.2468 112.496C90.7054 112.251 91.0734 111.883 91.3508 111.392C91.6388 110.901 91.7828 110.304 91.7828 109.6C91.7828 108.896 91.6441 108.299 91.3668 107.808C91.0894 107.317 90.7268 106.955 90.2788 106.72C89.8308 106.475 89.3454 106.352 88.8228 106.352C88.2894 106.352 87.7988 106.475 87.3508 106.72C86.9134 106.955 86.5614 107.317 86.2948 107.808C86.0281 108.299 85.8948 108.896 85.8948 109.6C85.8948 110.315 86.0228 110.917 86.2788 111.408C86.5454 111.899 86.8974 112.267 87.3348 112.512C87.7721 112.747 88.2521 112.864 88.7748 112.864ZM106.865 105.232L104.129 114H102.625L100.513 107.04L98.4011 114H96.8971L94.1451 105.232H95.6331L97.6491 112.592L99.8251 105.232H101.313L103.441 112.608L105.425 105.232H106.865Z" fill="white"/>
<path opacity="0.5" d="M199.284 114.112C198.548 114.112 197.886 113.984 197.3 113.728C196.724 113.461 196.27 113.099 195.94 112.64C195.609 112.171 195.438 111.632 195.428 111.024H196.98C197.033 111.547 197.246 111.989 197.62 112.352C198.004 112.704 198.558 112.88 199.284 112.88C199.977 112.88 200.521 112.709 200.916 112.368C201.321 112.016 201.524 111.568 201.524 111.024C201.524 110.597 201.406 110.251 201.172 109.984C200.937 109.717 200.644 109.515 200.292 109.376C199.94 109.237 199.465 109.088 198.868 108.928C198.132 108.736 197.54 108.544 197.092 108.352C196.654 108.16 196.276 107.861 195.956 107.456C195.646 107.04 195.492 106.485 195.492 105.792C195.492 105.184 195.646 104.645 195.956 104.176C196.265 103.707 196.697 103.344 197.252 103.088C197.817 102.832 198.462 102.704 199.188 102.704C200.233 102.704 201.086 102.965 201.748 103.488C202.42 104.011 202.798 104.704 202.884 105.568H201.284C201.23 105.141 201.006 104.768 200.612 104.448C200.217 104.117 199.694 103.952 199.044 103.952C198.436 103.952 197.94 104.112 197.556 104.432C197.172 104.741 196.98 105.179 196.98 105.744C196.98 106.149 197.092 106.48 197.316 106.736C197.55 106.992 197.833 107.189 198.164 107.328C198.505 107.456 198.98 107.605 199.588 107.776C200.324 107.979 200.916 108.181 201.364 108.384C201.812 108.576 202.196 108.88 202.516 109.296C202.836 109.701 202.996 110.256 202.996 110.96C202.996 111.504 202.852 112.016 202.564 112.496C202.276 112.976 201.849 113.365 201.284 113.664C200.718 113.963 200.052 114.112 199.284 114.112ZM209.49 105.072C210.152 105.072 210.749 105.216 211.282 105.504C211.816 105.781 212.232 106.203 212.53 106.768C212.84 107.333 212.994 108.021 212.994 108.832V114H211.554V109.04C211.554 108.165 211.336 107.499 210.898 107.04C210.461 106.571 209.864 106.336 209.106 106.336C208.338 106.336 207.725 106.576 207.266 107.056C206.818 107.536 206.594 108.235 206.594 109.152V114H205.138V102.16H206.594V106.48C206.882 106.032 207.277 105.685 207.778 105.44C208.29 105.195 208.861 105.072 209.49 105.072ZM216.125 103.808C215.847 103.808 215.613 103.712 215.421 103.52C215.229 103.328 215.133 103.093 215.133 102.816C215.133 102.539 215.229 102.304 215.421 102.112C215.613 101.92 215.847 101.824 216.125 101.824C216.391 101.824 216.615 101.92 216.797 102.112C216.989 102.304 217.085 102.539 217.085 102.816C217.085 103.093 216.989 103.328 216.797 103.52C216.615 103.712 216.391 103.808 216.125 103.808ZM216.829 105.232V114H215.373V105.232H216.829ZM222.878 106.432H221.038V114H219.582V106.432H218.446V105.232H219.582V104.608C219.582 103.627 219.833 102.912 220.334 102.464C220.846 102.005 221.662 101.776 222.782 101.776V102.992C222.142 102.992 221.689 103.12 221.422 103.376C221.166 103.621 221.038 104.032 221.038 104.608V105.232H222.878V106.432ZM226.352 106.432V111.6C226.352 112.027 226.442 112.331 226.624 112.512C226.805 112.683 227.12 112.768 227.568 112.768H228.64V114H227.328C226.517 114 225.909 113.813 225.504 113.44C225.098 113.067 224.896 112.453 224.896 111.6V106.432H223.76V105.232H224.896V103.024H226.352V105.232H228.64V106.432H226.352ZM238.724 108.768H235.316V112.224H233.956V108.768H230.564V107.536H233.956V104.064H235.316V107.536H238.724V108.768ZM242.782 112.816H246.686V114H241.326V102.848H242.782V112.816Z" fill="white"/>
<path fill-rule="evenodd" clip-rule="evenodd" d="M48 157C43.029 157 39 152.971 39 148C39 143.029 43.029 139 48 139C52.971 139 57 143.029 57 148C57 152.971 52.971 157 48 157Z" stroke="white" stroke-width="1.5" stroke-linecap="round" stroke-linejoin="round"/>
<path d="M70.688 144.032V147.76H74.752V148.96H70.688V152.8H75.232V154H69.232V142.832H75.232V144.032H70.688ZM78.8911 142.16V154H77.4351V142.16H78.8911ZM82.8286 142.16V154H81.3726V142.16H82.8286ZM86.0621 143.808C85.7848 143.808 85.5501 143.712 85.3581 143.52C85.1661 143.328 85.0701 143.093 85.0701 142.816C85.0701 142.539 85.1661 142.304 85.3581 142.112C85.5501 141.92 85.7848 141.824 86.0621 141.824C86.3288 141.824 86.5528 141.92 86.7341 142.112C86.9261 142.304 87.0221 142.539 87.0221 142.816C87.0221 143.093 86.9261 143.328 86.7341 143.52C86.5528 143.712 86.3288 143.808 86.0621 143.808ZM86.7661 145.232V154H85.3101V145.232H86.7661ZM90.7036 146.848C90.9916 146.347 91.4183 145.931 91.9836 145.6C92.5596 145.259 93.2263 145.088 93.9836 145.088C94.7623 145.088 95.4663 145.275 96.0956 145.648C96.7356 146.021 97.237 146.549 97.5996 147.232C97.9623 147.904 98.1436 148.688 98.1436 149.584C98.1436 150.469 97.9623 151.259 97.5996 151.952C97.237 152.645 96.7356 153.184 96.0956 153.568C95.4663 153.952 94.7623 154.144 93.9836 154.144C93.237 154.144 92.5756 153.979 91.9996 153.648C91.4343 153.307 91.0023 152.885 90.7036 152.384V158.16H89.2476V145.232H90.7036V146.848ZM96.6556 149.584C96.6556 148.923 96.5223 148.347 96.2556 147.856C95.989 147.365 95.6263 146.992 95.1676 146.736C94.7196 146.48 94.2236 146.352 93.6796 146.352C93.1463 146.352 92.6503 146.485 92.1916 146.752C91.7436 147.008 91.381 147.387 91.1036 147.888C90.837 148.379 90.7036 148.949 90.7036 149.6C90.7036 150.261 90.837 150.843 91.1036 151.344C91.381 151.835 91.7436 152.213 92.1916 152.48C92.6503 152.736 93.1463 152.864 93.6796 152.864C94.2236 152.864 94.7196 152.736 95.1676 152.48C95.6263 152.213 95.989 151.835 96.2556 151.344C96.5223 150.843 96.6556 150.256 96.6556 149.584ZM103.164 154.144C102.492 154.144 101.889 154.032 101.356 153.808C100.823 153.573 100.401 153.253 100.092 152.848C99.7828 152.432 99.6121 151.957 99.5801 151.424H101.084C101.127 151.861 101.329 152.219 101.692 152.496C102.065 152.773 102.551 152.912 103.148 152.912C103.703 152.912 104.14 152.789 104.46 152.544C104.78 152.299 104.94 151.989 104.94 151.616C104.94 151.232 104.769 150.949 104.428 150.768C104.087 150.576 103.559 150.389 102.844 150.208C102.193 150.037 101.66 149.867 101.244 149.696C100.839 149.515 100.487 149.253 100.188 148.912C99.9001 148.56 99.7561 148.101 99.7561 147.536C99.7561 147.088 99.8895 146.677 100.156 146.304C100.423 145.931 100.801 145.637 101.292 145.424C101.783 145.2 102.343 145.088 102.972 145.088C103.943 145.088 104.727 145.333 105.324 145.824C105.921 146.315 106.241 146.987 106.284 147.84H104.828C104.796 147.381 104.609 147.013 104.268 146.736C103.937 146.459 103.489 146.32 102.924 146.32C102.401 146.32 101.985 146.432 101.676 146.656C101.367 146.88 101.212 147.173 101.212 147.536C101.212 147.824 101.303 148.064 101.484 148.256C101.676 148.437 101.911 148.587 102.188 148.704C102.476 148.811 102.871 148.933 103.372 149.072C104.001 149.243 104.513 149.413 104.908 149.584C105.303 149.744 105.639 149.989 105.916 150.32C106.204 150.651 106.353 151.083 106.364 151.616C106.364 152.096 106.231 152.528 105.964 152.912C105.697 153.296 105.319 153.6 104.828 153.824C104.348 154.037 103.793 154.144 103.164 154.144ZM116.42 149.28C116.42 149.557 116.404 149.851 116.372 150.16H109.364C109.417 151.024 109.71 151.701 110.244 152.192C110.788 152.672 111.444 152.912 112.212 152.912C112.841 152.912 113.364 152.768 113.78 152.48C114.206 152.181 114.505 151.787 114.676 151.296H116.244C116.009 152.139 115.54 152.827 114.836 153.36C114.132 153.883 113.257 154.144 112.212 154.144C111.38 154.144 110.633 153.957 109.972 153.584C109.321 153.211 108.809 152.683 108.436 152C108.062 151.307 107.876 150.507 107.876 149.6C107.876 148.693 108.057 147.899 108.42 147.216C108.782 146.533 109.289 146.011 109.94 145.648C110.601 145.275 111.358 145.088 112.212 145.088C113.044 145.088 113.78 145.269 114.42 145.632C115.06 145.995 115.55 146.496 115.892 147.136C116.244 147.765 116.42 148.48 116.42 149.28ZM114.916 148.976C114.916 148.421 114.793 147.947 114.548 147.552C114.302 147.147 113.966 146.843 113.54 146.64C113.124 146.427 112.66 146.32 112.148 146.32C111.412 146.32 110.782 146.555 110.26 147.024C109.748 147.493 109.454 148.144 109.38 148.976H114.916Z" fill="white"/>
<path opacity="0.5" d="M240.71 154.112C239.675 154.112 238.731 153.872 237.878 153.392C237.025 152.901 236.347 152.224 235.846 151.36C235.355 150.485 235.11 149.504 235.11 148.416C235.11 147.328 235.355 146.352 235.846 145.488C236.347 144.613 237.025 143.936 237.878 143.456C238.731 142.965 239.675 142.72 240.71 142.72C241.755 142.72 242.705 142.965 243.558 143.456C244.411 143.936 245.083 144.608 245.574 145.472C246.065 146.336 246.31 147.317 246.31 148.416C246.31 149.515 246.065 150.496 245.574 151.36C245.083 152.224 244.411 152.901 243.558 153.392C242.705 153.872 241.755 154.112 240.71 154.112ZM240.71 152.848C241.489 152.848 242.187 152.667 242.806 152.304C243.435 151.941 243.926 151.424 244.278 150.752C244.641 150.08 244.822 149.301 244.822 148.416C244.822 147.52 244.641 146.741 244.278 146.08C243.926 145.408 243.441 144.891 242.822 144.528C242.203 144.165 241.499 143.984 240.71 143.984C239.921 143.984 239.217 144.165 238.598 144.528C237.979 144.891 237.489 145.408 237.126 146.08C236.774 146.741 236.598 147.52 236.598 148.416C236.598 149.301 236.774 150.08 237.126 150.752C237.489 151.424 237.979 151.941 238.598 152.304C239.227 152.667 239.931 152.848 240.71 152.848Z" fill="white"/>
<path d="M36.866 196.5L46.3923 180L55.9186 196.5H36.866Z" stroke="white"/>
<path d="M73.4727 186.112C73.4727 187.04 73.1527 187.813 72.5127 188.432C71.8833 189.04 70.918 189.344 69.6167 189.344H67.4727V194H66.0167V182.848H69.6167C70.8753 182.848 71.83 183.152 72.4807 183.76C73.142 184.368 73.4727 185.152 73.4727 186.112ZM69.6167 188.144C70.4273 188.144 71.0247 187.968 71.4087 187.616C71.7927 187.264 71.9847 186.763 71.9847 186.112C71.9847 184.736 71.1953 184.048 69.6167 184.048H67.4727V188.144H69.6167ZM79.1063 194.144C78.285 194.144 77.5383 193.957 76.8663 193.584C76.205 193.211 75.6823 192.683 75.2983 192C74.925 191.307 74.7383 190.507 74.7383 189.6C74.7383 188.704 74.9303 187.915 75.3143 187.232C75.709 186.539 76.2423 186.011 76.9143 185.648C77.5863 185.275 78.3383 185.088 79.1703 185.088C80.0023 185.088 80.7543 185.275 81.4263 185.648C82.0983 186.011 82.6263 186.533 83.0103 187.216C83.405 187.899 83.6023 188.693 83.6023 189.6C83.6023 190.507 83.3996 191.307 82.9943 192C82.5996 192.683 82.061 193.211 81.3783 193.584C80.6956 193.957 79.9383 194.144 79.1063 194.144ZM79.1063 192.864C79.629 192.864 80.1196 192.741 80.5783 192.496C81.037 192.251 81.405 191.883 81.6823 191.392C81.9703 190.901 82.1143 190.304 82.1143 189.6C82.1143 188.896 81.9756 188.299 81.6983 187.808C81.421 187.317 81.0583 186.955 80.6103 186.72C80.1623 186.475 79.677 186.352 79.1543 186.352C78.621 186.352 78.1303 186.475 77.6823 186.72C77.245 186.955 76.893 187.317 76.6263 187.808C76.3596 188.299 76.2263 188.896 76.2263 189.6C76.2263 190.315 76.3543 190.917 76.6103 191.408C76.877 191.899 77.229 192.267 77.6663 192.512C78.1036 192.747 78.5836 192.864 79.1063 192.864ZM86.9727 182.16V194H85.5167V182.16H86.9727ZM97.0062 185.232L91.7262 198.128H90.2222L91.9502 193.904L88.4142 185.232H90.0302L92.7822 192.336L95.5022 185.232H97.0062ZM102.086 185.088C102.843 185.088 103.504 185.253 104.07 185.584C104.646 185.915 105.072 186.331 105.35 186.832V185.232H106.822V194.192C106.822 194.992 106.651 195.701 106.31 196.32C105.968 196.949 105.478 197.44 104.838 197.792C104.208 198.144 103.472 198.32 102.63 198.32C101.478 198.32 100.518 198.048 99.7498 197.504C98.9818 196.96 98.5285 196.219 98.3898 195.28H99.8298C99.9898 195.813 100.32 196.24 100.822 196.56C101.323 196.891 101.926 197.056 102.63 197.056C103.43 197.056 104.08 196.805 104.582 196.304C105.094 195.803 105.35 195.099 105.35 194.192V192.352C105.062 192.864 104.635 193.291 104.07 193.632C103.504 193.973 102.843 194.144 102.086 194.144C101.307 194.144 100.598 193.952 99.9578 193.568C99.3285 193.184 98.8325 192.645 98.4698 191.952C98.1071 191.259 97.9258 190.469 97.9258 189.584C97.9258 188.688 98.1071 187.904 98.4698 187.232C98.8325 186.549 99.3285 186.021 99.9578 185.648C100.598 185.275 101.307 185.088 102.086 185.088ZM105.35 189.6C105.35 188.939 105.216 188.363 104.95 187.872C104.683 187.381 104.32 187.008 103.862 186.752C103.414 186.485 102.918 186.352 102.374 186.352C101.83 186.352 101.334 186.48 100.886 186.736C100.438 186.992 100.08 187.365 99.8138 187.856C99.5471 188.347 99.4138 188.923 99.4138 189.584C99.4138 190.256 99.5471 190.843 99.8138 191.344C100.08 191.835 100.438 192.213 100.886 192.48C101.334 192.736 101.83 192.864 102.374 192.864C102.918 192.864 103.414 192.736 103.862 192.48C104.32 192.213 104.683 191.835 104.95 191.344C105.216 190.843 105.35 190.261 105.35 189.6ZM113.106 194.144C112.285 194.144 111.538 193.957 110.866 193.584C110.205 193.211 109.682 192.683 109.298 192C108.925 191.307 108.738 190.507 108.738 189.6C108.738 188.704 108.93 187.915 109.314 187.232C109.709 186.539 110.242 186.011 110.914 185.648C111.586 185.275 112.338 185.088 113.17 185.088C114.002 185.088 114.754 185.275 115.426 185.648C116.098 186.011 116.626 186.533 117.01 187.216C117.405 187.899 117.602 188.693 117.602 189.6C117.602 190.507 117.4 191.307 116.994 192C116.6 192.683 116.061 193.211 115.378 193.584C114.696 193.957 113.938 194.144 113.106 194.144ZM113.106 192.864C113.629 192.864 114.12 192.741 114.578 192.496C115.037 192.251 115.405 191.883 115.682 191.392C115.97 190.901 116.114 190.304 116.114 189.6C116.114 188.896 115.976 188.299 115.698 187.808C115.421 187.317 115.058 186.955 114.61 186.72C114.162 186.475 113.677 186.352 113.154 186.352C112.621 186.352 112.13 186.475 111.682 186.72C111.245 186.955 110.893 187.317 110.626 187.808C110.36 188.299 110.226 188.896 110.226 189.6C110.226 190.315 110.354 190.917 110.61 191.408C110.877 191.899 111.229 192.267 111.666 192.512C112.104 192.747 112.584 192.864 113.106 192.864ZM123.789 185.072C124.855 185.072 125.719 185.397 126.381 186.048C127.042 186.688 127.373 187.616 127.373 188.832V194H125.933V189.04C125.933 188.165 125.714 187.499 125.277 187.04C124.839 186.571 124.242 186.336 123.485 186.336C122.717 186.336 122.103 186.576 121.645 187.056C121.197 187.536 120.973 188.235 120.973 189.152V194H119.517V185.232H120.973V186.48C121.261 186.032 121.65 185.685 122.141 185.44C122.642 185.195 123.191 185.072 123.789 185.072Z" fill="white"/>
<path d="M48.6667 217.612L51.1815 225.322L51.294 225.667H51.6569H59.7896L53.2118 230.428L52.9165 230.641L53.0296 230.988L55.5431 238.694L48.9598 233.929L48.6667 233.717L48.3735 233.929L41.7902 238.694L44.3038 230.988L44.4168 230.641L44.1216 230.428L37.5437 225.667H45.6765H46.0393L46.1518 225.322L48.6667 217.612Z" stroke="white"/>
<path d="M74.1014 234.112C73.3654 234.112 72.704 233.984 72.1174 233.728C71.5414 233.461 71.088 233.099 70.7574 232.64C70.4267 232.171 70.256 231.632 70.2454 231.024H71.7974C71.8507 231.547 72.064 231.989 72.4374 232.352C72.8214 232.704 73.376 232.88 74.1014 232.88C74.7947 232.88 75.3387 232.709 75.7334 232.368C76.1387 232.016 76.3414 231.568 76.3414 231.024C76.3414 230.597 76.224 230.251 75.9894 229.984C75.7547 229.717 75.4614 229.515 75.1094 229.376C74.7574 229.237 74.2827 229.088 73.6854 228.928C72.9494 228.736 72.3574 228.544 71.9094 228.352C71.472 228.16 71.0934 227.861 70.7734 227.456C70.464 227.04 70.3094 226.485 70.3094 225.792C70.3094 225.184 70.464 224.645 70.7734 224.176C71.0827 223.707 71.5147 223.344 72.0694 223.088C72.6347 222.832 73.28 222.704 74.0054 222.704C75.0507 222.704 75.904 222.965 76.5654 223.488C77.2374 224.011 77.616 224.704 77.7014 225.568H76.1014C76.048 225.141 75.824 224.768 75.4294 224.448C75.0347 224.117 74.512 223.952 73.8614 223.952C73.2534 223.952 72.7574 224.112 72.3734 224.432C71.9894 224.741 71.7974 225.179 71.7974 225.744C71.7974 226.149 71.9094 226.48 72.1334 226.736C72.368 226.992 72.6507 227.189 72.9814 227.328C73.3227 227.456 73.7974 227.605 74.4054 227.776C75.1414 227.979 75.7334 228.181 76.1814 228.384C76.6294 228.576 77.0134 228.88 77.3334 229.296C77.6534 229.701 77.8134 230.256 77.8134 230.96C77.8134 231.504 77.6694 232.016 77.3814 232.496C77.0934 232.976 76.6667 233.365 76.1014 233.664C75.536 233.963 74.8694 234.112 74.1014 234.112ZM81.732 226.432V231.6C81.732 232.027 81.8227 232.331 82.004 232.512C82.1853 232.683 82.5 232.768 82.948 232.768H84.02V234H82.708C81.8973 234 81.2893 233.813 80.884 233.44C80.4787 233.067 80.276 232.453 80.276 231.6V226.432H79.14V225.232H80.276V223.024H81.732V225.232H84.02V226.432H81.732ZM85.2401 229.584C85.2401 228.688 85.4215 227.904 85.7841 227.232C86.1468 226.549 86.6428 226.021 87.2721 225.648C87.9121 225.275 88.6215 225.088 89.4001 225.088C90.1681 225.088 90.8348 225.253 91.4001 225.584C91.9655 225.915 92.3868 226.331 92.6641 226.832V225.232H94.1361V234H92.6641V232.368C92.3761 232.88 91.9441 233.307 91.3681 233.648C90.8028 233.979 90.1415 234.144 89.3841 234.144C88.6055 234.144 87.9015 233.952 87.2721 233.568C86.6428 233.184 86.1468 232.645 85.7841 231.952C85.4215 231.259 85.2401 230.469 85.2401 229.584ZM92.6641 229.6C92.6641 228.939 92.5308 228.363 92.2641 227.872C91.9975 227.381 91.6348 227.008 91.1761 226.752C90.7281 226.485 90.2321 226.352 89.6881 226.352C89.1441 226.352 88.6481 226.48 88.2001 226.736C87.7521 226.992 87.3948 227.365 87.1281 227.856C86.8615 228.347 86.7281 228.923 86.7281 229.584C86.7281 230.256 86.8615 230.843 87.1281 231.344C87.3948 231.835 87.7521 232.213 88.2001 232.48C88.6481 232.736 89.1441 232.864 89.6881 232.864C90.2321 232.864 90.7281 232.736 91.1761 232.48C91.6348 232.213 91.9975 231.835 92.2641 231.344C92.5308 230.843 92.6641 230.261 92.6641 229.6ZM98.0526 226.656C98.3086 226.155 98.6713 225.765 99.1406 225.488C99.6206 225.211 100.202 225.072 100.885 225.072V226.576H100.501C98.8686 226.576 98.0526 227.461 98.0526 229.232V234H96.5966V225.232H98.0526V226.656Z" fill="white"/>
<path d="M56.64 271.373L52.5188 267.252C52.1434 266.877 51.5357 266.877 51.1613 267.252L47.04 271.373" stroke="white" stroke-width="1.5" stroke-linecap="round" stroke-linejoin="round"/>
<path fill-rule="evenodd" clip-rule="evenodd" d="M53.76 276.173H42.24C40.6493 276.173 39.36 274.884 39.36 273.293V261.773C39.36 260.183 40.6493 258.893 42.24 258.893H53.76C55.3507 258.893 56.64 260.183 56.64 261.773V273.293C56.64 274.884 55.3507 276.173 53.76 276.173Z" stroke="white" stroke-width="1.5" stroke-linecap="round" stroke-linejoin="round"/>
<path d="M51.8399 276.173L45.7986 270.132C45.4233 269.757 44.8156 269.757 44.4412 270.132L39.7881 274.785" stroke="white" stroke-width="1.5" stroke-linecap="round" stroke-linejoin="round"/>
<path d="M45.3746 264.399C45.5152 264.539 45.5152 264.767 45.3746 264.908C45.234 265.049 45.006 265.049 44.8655 264.908C44.7249 264.767 44.7249 264.539 44.8655 264.399C45.006 264.258 45.234 264.258 45.3746 264.399" stroke="white" stroke-width="1.5" stroke-linecap="round" stroke-linejoin="round"/>
<path d="M70.688 262.848V274H69.232V262.848H70.688ZM83.7135 265.072C84.3962 265.072 85.0042 265.216 85.5375 265.504C86.0708 265.781 86.4922 266.203 86.8015 266.768C87.1108 267.333 87.2655 268.021 87.2655 268.832V274H85.8255V269.04C85.8255 268.165 85.6068 267.499 85.1695 267.04C84.7428 266.571 84.1615 266.336 83.4255 266.336C82.6682 266.336 82.0655 266.581 81.6175 267.072C81.1695 267.552 80.9455 268.251 80.9455 269.168V274H79.5055V269.04C79.5055 268.165 79.2868 267.499 78.8495 267.04C78.4228 266.571 77.8415 266.336 77.1055 266.336C76.3482 266.336 75.7455 266.581 75.2975 267.072C74.8495 267.552 74.6255 268.251 74.6255 269.168V274H73.1695V265.232H74.6255V266.496C74.9135 266.037 75.2975 265.685 75.7775 265.44C76.2682 265.195 76.8068 265.072 77.3935 265.072C78.1295 265.072 78.7802 265.237 79.3455 265.568C79.9108 265.899 80.3322 266.384 80.6095 267.024C80.8548 266.405 81.2602 265.925 81.8255 265.584C82.3908 265.243 83.0202 265.072 83.7135 265.072ZM89.1099 269.584C89.1099 268.688 89.2912 267.904 89.6539 267.232C90.0165 266.549 90.5125 266.021 91.1419 265.648C91.7819 265.275 92.4912 265.088 93.2699 265.088C94.0379 265.088 94.7045 265.253 95.2699 265.584C95.8352 265.915 96.2565 266.331 96.5339 266.832V265.232H98.0059V274H96.5339V272.368C96.2459 272.88 95.8139 273.307 95.2379 273.648C94.6725 273.979 94.0112 274.144 93.2539 274.144C92.4752 274.144 91.7712 273.952 91.1419 273.568C90.5125 273.184 90.0165 272.645 89.6539 271.952C89.2912 271.259 89.1099 270.469 89.1099 269.584ZM96.5339 269.6C96.5339 268.939 96.4005 268.363 96.1339 267.872C95.8672 267.381 95.5045 267.008 95.0459 266.752C94.5979 266.485 94.1019 266.352 93.5579 266.352C93.0139 266.352 92.5179 266.48 92.0699 266.736C91.6219 266.992 91.2645 267.365 90.9979 267.856C90.7312 268.347 90.5979 268.923 90.5979 269.584C90.5979 270.256 90.7312 270.843 90.9979 271.344C91.2645 271.835 91.6219 272.213 92.0699 272.48C92.5179 272.736 93.0139 272.864 93.5579 272.864C94.1019 272.864 94.5979 272.736 95.0459 272.48C95.5045 272.213 95.8672 271.835 96.1339 271.344C96.4005 270.843 96.5339 270.261 96.5339 269.6ZM104.082 265.088C104.84 265.088 105.501 265.253 106.066 265.584C106.642 265.915 107.069 266.331 107.346 266.832V265.232H108.818V274.192C108.818 274.992 108.648 275.701 108.306 276.32C107.965 276.949 107.474 277.44 106.834 277.792C106.205 278.144 105.469 278.32 104.626 278.32C103.474 278.32 102.514 278.048 101.746 277.504C100.978 276.96 100.525 276.219 100.386 275.28H101.826C101.986 275.813 102.317 276.24 102.818 276.56C103.32 276.891 103.922 277.056 104.626 277.056C105.426 277.056 106.077 276.805 106.578 276.304C107.09 275.803 107.346 275.099 107.346 274.192V272.352C107.058 272.864 106.632 273.291 106.066 273.632C105.501 273.973 104.84 274.144 104.082 274.144C103.304 274.144 102.594 273.952 101.954 273.568C101.325 273.184 100.829 272.645 100.466 271.952C100.104 271.259 99.9224 270.469 99.9224 269.584C99.9224 268.688 100.104 267.904 100.466 267.232C100.829 266.549 101.325 266.021 101.954 265.648C102.594 265.275 103.304 265.088 104.082 265.088ZM107.346 269.6C107.346 268.939 107.213 268.363 106.946 267.872C106.68 267.381 106.317 267.008 105.858 266.752C105.41 266.485 104.914 266.352 104.37 266.352C103.826 266.352 103.33 266.48 102.882 266.736C102.434 266.992 102.077 267.365 101.81 267.856C101.544 268.347 101.41 268.923 101.41 269.584C101.41 270.256 101.544 270.843 101.81 271.344C102.077 271.835 102.434 272.213 102.882 272.48C103.33 272.736 103.826 272.864 104.37 272.864C104.914 272.864 105.41 272.736 105.858 272.48C106.317 272.213 106.68 271.835 106.946 271.344C107.213 270.843 107.346 270.261 107.346 269.6ZM119.279 269.28C119.279 269.557 119.263 269.851 119.231 270.16H112.223C112.276 271.024 112.57 271.701 113.103 272.192C113.647 272.672 114.303 272.912 115.071 272.912C115.7 272.912 116.223 272.768 116.639 272.48C117.066 272.181 117.364 271.787 117.535 271.296H119.103C118.868 272.139 118.399 272.827 117.695 273.36C116.991 273.883 116.116 274.144 115.071 274.144C114.239 274.144 113.492 273.957 112.831 273.584C112.18 273.211 111.668 272.683 111.295 272C110.922 271.307 110.735 270.507 110.735 269.6C110.735 268.693 110.916 267.899 111.279 267.216C111.642 266.533 112.148 266.011 112.799 265.648C113.46 265.275 114.218 265.088 115.071 265.088C115.903 265.088 116.639 265.269 117.279 265.632C117.919 265.995 118.41 266.496 118.751 267.136C119.103 267.765 119.279 268.48 119.279 269.28ZM117.775 268.976C117.775 268.421 117.652 267.947 117.407 267.552C117.162 267.147 116.826 266.843 116.399 266.64C115.983 266.427 115.519 266.32 115.007 266.32C114.271 266.32 113.642 266.555 113.119 267.024C112.607 267.493 112.314 268.144 112.239 268.976H117.775ZM121.665 274.096C121.387 274.096 121.153 274 120.961 273.808C120.769 273.616 120.673 273.381 120.673 273.104C120.673 272.827 120.769 272.592 120.961 272.4C121.153 272.208 121.387 272.112 121.665 272.112C121.931 272.112 122.155 272.208 122.337 272.4C122.529 272.592 122.625 272.827 122.625 273.104C122.625 273.381 122.529 273.616 122.337 273.808C122.155 274 121.931 274.096 121.665 274.096ZM125.024 274.096C124.747 274.096 124.512 274 124.32 273.808C124.128 273.616 124.032 273.381 124.032 273.104C124.032 272.827 124.128 272.592 124.32 272.4C124.512 272.208 124.747 272.112 125.024 272.112C125.291 272.112 125.515 272.208 125.696 272.4C125.888 272.592 125.984 272.827 125.984 273.104C125.984 273.381 125.888 273.616 125.696 273.808C125.515 274 125.291 274.096 125.024 274.096ZM128.384 274.096C128.106 274.096 127.872 274 127.68 273.808C127.488 273.616 127.392 273.381 127.392 273.104C127.392 272.827 127.488 272.592 127.68 272.4C127.872 272.208 128.106 272.112 128.384 272.112C128.65 272.112 128.874 272.208 129.056 272.4C129.248 272.592 129.344 272.827 129.344 273.104C129.344 273.381 129.248 273.616 129.056 273.808C128.874 274 128.65 274.096 128.384 274.096Z" fill="white"/>
<path opacity="0.5" d="M153.516 268.416C153.516 267.328 153.761 266.352 154.252 265.488C154.743 264.613 155.409 263.931 156.252 263.44C157.105 262.949 158.049 262.704 159.084 262.704C160.3 262.704 161.361 262.997 162.268 263.584C163.175 264.171 163.836 265.003 164.252 266.08H162.508C162.199 265.408 161.751 264.891 161.164 264.528C160.588 264.165 159.895 263.984 159.084 263.984C158.305 263.984 157.607 264.165 156.988 264.528C156.369 264.891 155.884 265.408 155.532 266.08C155.18 266.741 155.004 267.52 155.004 268.416C155.004 269.301 155.18 270.08 155.532 270.752C155.884 271.413 156.369 271.925 156.988 272.288C157.607 272.651 158.305 272.832 159.084 272.832C159.895 272.832 160.588 272.656 161.164 272.304C161.751 271.941 162.199 271.424 162.508 270.752H164.252C163.836 271.819 163.175 272.645 162.268 273.232C161.361 273.808 160.3 274.096 159.084 274.096C158.049 274.096 157.105 273.856 156.252 273.376C155.409 272.885 154.743 272.208 154.252 271.344C153.761 270.48 153.516 269.504 153.516 268.416ZM168.196 266.432V271.6C168.196 272.027 168.286 272.331 168.468 272.512C168.649 272.683 168.964 272.768 169.411 272.768H170.484V274H169.172C168.361 274 167.753 273.813 167.348 273.44C166.942 273.067 166.74 272.453 166.74 271.6V266.432H165.604V265.232H166.74V263.024H168.196V265.232H170.484V266.432H168.196ZM173.704 266.656C173.96 266.155 174.322 265.765 174.792 265.488C175.272 265.211 175.853 265.072 176.536 265.072V266.576H176.152C174.52 266.576 173.704 267.461 173.704 269.232V274H172.248V265.232H173.704V266.656ZM179.672 262.16V274H178.216V262.16H179.672ZM190.474 268.768H187.066V272.224H185.706V268.768H182.314V267.536H185.706V264.064H187.066V267.536H190.474V268.768ZM196.612 274.112C195.876 274.112 195.214 273.984 194.628 273.728C194.052 273.461 193.598 273.099 193.268 272.64C192.937 272.171 192.766 271.632 192.756 271.024H194.308C194.361 271.547 194.574 271.989 194.948 272.352C195.332 272.704 195.886 272.88 196.612 272.88C197.305 272.88 197.849 272.709 198.244 272.368C198.649 272.016 198.852 271.568 198.852 271.024C198.852 270.597 198.734 270.251 198.5 269.984C198.265 269.717 197.972 269.515 197.62 269.376C197.268 269.237 196.793 269.088 196.196 268.928C195.46 268.736 194.868 268.544 194.42 268.352C193.982 268.16 193.604 267.861 193.284 267.456C192.974 267.04 192.82 266.485 192.82 265.792C192.82 265.184 192.974 264.645 193.284 264.176C193.593 263.707 194.025 263.344 194.58 263.088C195.145 262.832 195.79 262.704 196.516 262.704C197.561 262.704 198.414 262.965 199.076 263.488C199.748 264.011 200.126 264.704 200.212 265.568H198.612C198.558 265.141 198.334 264.768 197.94 264.448C197.545 264.117 197.022 263.952 196.372 263.952C195.764 263.952 195.268 264.112 194.884 264.432C194.5 264.741 194.308 265.179 194.308 265.744C194.308 266.149 194.42 266.48 194.644 266.736C194.878 266.992 195.161 267.189 195.492 267.328C195.833 267.456 196.308 267.605 196.916 267.776C197.652 267.979 198.244 268.181 198.692 268.384C199.14 268.576 199.524 268.88 199.844 269.296C200.164 269.701 200.324 270.256 200.324 270.96C200.324 271.504 200.18 272.016 199.892 272.496C199.604 272.976 199.177 273.365 198.612 273.664C198.046 273.963 197.38 274.112 196.612 274.112ZM206.818 265.072C207.48 265.072 208.077 265.216 208.61 265.504C209.144 265.781 209.56 266.203 209.858 266.768C210.168 267.333 210.322 268.021 210.322 268.832V274H208.882V269.04C208.882 268.165 208.664 267.499 208.226 267.04C207.789 266.571 207.192 266.336 206.434 266.336C205.666 266.336 205.053 266.576 204.594 267.056C204.146 267.536 203.922 268.235 203.922 269.152V274H202.466V262.16H203.922V266.48C204.21 266.032 204.605 265.685 205.106 265.44C205.618 265.195 206.189 265.072 206.818 265.072ZM213.453 263.808C213.175 263.808 212.941 263.712 212.749 263.52C212.557 263.328 212.461 263.093 212.461 262.816C212.461 262.539 212.557 262.304 212.749 262.112C212.941 261.92 213.175 261.824 213.453 261.824C213.719 261.824 213.943 261.92 214.125 262.112C214.317 262.304 214.413 262.539 214.413 262.816C214.413 263.093 214.317 263.328 214.125 263.52C213.943 263.712 213.719 263.808 213.453 263.808ZM214.157 265.232V274H212.701V265.232H214.157ZM220.206 266.432H218.366V274H216.91V266.432H215.774V265.232H216.91V264.608C216.91 263.627 217.161 262.912 217.662 262.464C218.174 262.005 218.99 261.776 220.11 261.776V262.992C219.47 262.992 219.017 263.12 218.75 263.376C218.494 263.621 218.366 264.032 218.366 264.608V265.232H220.206V266.432ZM223.68 266.432V271.6C223.68 272.027 223.771 272.331 223.952 272.512C224.133 272.683 224.448 272.768 224.896 272.768H225.968V274H224.656C223.845 274 223.237 273.813 222.832 273.44C222.427 273.067 222.224 272.453 222.224 271.6V266.432H221.088V265.232H222.224V263.024H223.68V265.232H225.968V266.432H223.68ZM236.052 268.768H232.644V272.224H231.284V268.768H227.892V267.536H231.284V264.064H232.644V267.536H236.052V268.768ZM244.702 274L240.11 268.912V274H238.654V262.848H240.11V268.016L244.718 262.848H246.558L241.502 268.432L246.606 274H244.702Z" fill="white"/>
</svg>
