<svg width="269" height="48" viewBox="0 0 269 48" fill="none" xmlns="http://www.w3.org/2000/svg">
<path d="M0 8C0 3.58172 3.58172 0 8 0H261C265.418 0 269 3.58172 269 8V40C269 44.4183 265.418 48 261 48H8.00001C3.58173 48 0 44.4183 0 40V8Z" fill="#1B1C1F"/>
<g opacity="0.8">
<path d="M44.64 27.3734L40.5188 23.2522C40.1434 22.8768 39.5357 22.8768 39.1613 23.2522L35.04 27.3734" stroke="white" stroke-width="1.5" stroke-linecap="round" stroke-linejoin="round"/>
<path fill-rule="evenodd" clip-rule="evenodd" d="M41.76 32.1734H30.24C28.6493 32.1734 27.36 30.8842 27.36 29.2934V17.7734C27.36 16.1827 28.6493 14.8934 30.24 14.8934H41.76C43.3507 14.8934 44.64 16.1827 44.64 17.7734V29.2934C44.64 30.8842 43.3507 32.1734 41.76 32.1734Z" stroke="white" stroke-width="1.5" stroke-linecap="round" stroke-linejoin="round"/>
<path d="M39.8399 32.1734L33.7986 26.1322C33.4233 25.7568 32.8156 25.7568 32.4412 26.1322L27.7881 30.7853" stroke="white" stroke-width="1.5" stroke-linecap="round" stroke-linejoin="round"/>
<path d="M33.3746 20.3989C33.5152 20.5395 33.5152 20.7674 33.3746 20.908C33.234 21.0486 33.006 21.0486 32.8655 20.908C32.7249 20.7674 32.7249 20.5395 32.8655 20.3989C33.006 20.2583 33.234 20.2583 33.3746 20.3989" stroke="white" stroke-width="1.5" stroke-linecap="round" stroke-linejoin="round"/>
</g>
<rect x="56.5" y="8.5" width="188" height="31" rx="3.5" fill="white" fill-opacity="0.1"/>
<rect x="56.5" y="8.5" width="188" height="31" rx="3.5" stroke="#1080D2"/>
<rect width="111" height="24" transform="translate(64 12)" fill="#1F5780"/>
<path d="M70.816 24.256C71.2213 24.32 71.5893 24.4853 71.92 24.752C72.2613 25.0187 72.528 25.3493 72.72 25.744C72.9227 26.1387 73.024 26.56 73.024 27.008C73.024 27.5733 72.88 28.0853 72.592 28.544C72.304 28.992 71.8827 29.3493 71.328 29.616C70.784 29.872 70.1387 30 69.392 30H65.232V18.848H69.232C69.9893 18.848 70.6347 18.976 71.168 19.232C71.7013 19.4773 72.1013 19.8133 72.368 20.24C72.6347 20.6667 72.768 21.1467 72.768 21.68C72.768 22.3413 72.5867 22.8907 72.224 23.328C71.872 23.7547 71.4027 24.064 70.816 24.256ZM66.688 23.664H69.136C69.8187 23.664 70.3467 23.504 70.72 23.184C71.0933 22.864 71.28 22.4213 71.28 21.856C71.28 21.2907 71.0933 20.848 70.72 20.528C70.3467 20.208 69.808 20.048 69.104 20.048H66.688V23.664ZM69.264 28.8C69.9893 28.8 70.5547 28.6293 70.96 28.288C71.3653 27.9467 71.568 27.472 71.568 26.864C71.568 26.2453 71.3547 25.76 70.928 25.408C70.5013 25.0453 69.9307 24.864 69.216 24.864H66.688V28.8H69.264ZM76.5005 22.656C76.7565 22.1547 77.1192 21.7653 77.5885 21.488C78.0685 21.2107 78.6498 21.072 79.3325 21.072V22.576H78.9485C77.3165 22.576 76.5005 23.4613 76.5005 25.232V30H75.0445V21.232H76.5005V22.656ZM88.7893 21.232V30H87.3333V28.704C87.0559 29.152 86.6666 29.504 86.1653 29.76C85.6746 30.0053 85.1306 30.128 84.5333 30.128C83.8506 30.128 83.2373 29.9893 82.6933 29.712C82.1493 29.424 81.7173 28.9973 81.3973 28.432C81.0879 27.8667 80.9333 27.1787 80.9333 26.368V21.232H82.3733V26.176C82.3733 27.04 82.5919 27.7067 83.0293 28.176C83.4666 28.6347 84.0639 28.864 84.8213 28.864C85.5999 28.864 86.2133 28.624 86.6613 28.144C87.1093 27.664 87.3333 26.9653 87.3333 26.048V21.232H88.7893ZM95.5196 21.072C96.5863 21.072 97.4503 21.3973 98.1116 22.048C98.773 22.688 99.1036 23.616 99.1036 24.832V30H97.6636V25.04C97.6636 24.1653 97.445 23.4987 97.0076 23.04C96.5703 22.5707 95.973 22.336 95.2156 22.336C94.4476 22.336 93.8343 22.576 93.3756 23.056C92.9276 23.536 92.7036 24.2347 92.7036 25.152V30H91.2476V21.232H92.7036V22.48C92.9916 22.032 93.381 21.6853 93.8716 21.44C94.373 21.1947 94.9223 21.072 95.5196 21.072ZM100.938 25.584C100.938 24.688 101.119 23.904 101.482 23.232C101.845 22.5493 102.341 22.0213 102.97 21.648C103.61 21.2747 104.319 21.088 105.098 21.088C105.866 21.088 106.533 21.2533 107.098 21.584C107.663 21.9147 108.085 22.3307 108.362 22.832V21.232H109.834V30H108.362V28.368C108.074 28.88 107.642 29.3067 107.066 29.648C106.501 29.9787 105.839 30.144 105.082 30.144C104.303 30.144 103.599 29.952 102.97 29.568C102.341 29.184 101.845 28.6453 101.482 27.952C101.119 27.2587 100.938 26.4693 100.938 25.584ZM108.362 25.6C108.362 24.9387 108.229 24.3627 107.962 23.872C107.695 23.3813 107.333 23.008 106.874 22.752C106.426 22.4853 105.93 22.352 105.386 22.352C104.842 22.352 104.346 22.48 103.898 22.736C103.45 22.992 103.093 23.3653 102.826 23.856C102.559 24.3467 102.426 24.9227 102.426 25.584C102.426 26.256 102.559 26.8427 102.826 27.344C103.093 27.8347 103.45 28.2133 103.898 28.48C104.346 28.736 104.842 28.864 105.386 28.864C105.93 28.864 106.426 28.736 106.874 28.48C107.333 28.2133 107.695 27.8347 107.962 27.344C108.229 26.8427 108.362 26.2613 108.362 25.6ZM127.872 18.928V30H126.416V21.744L122.736 30H121.712L118.016 21.728V30H116.56V18.928H118.128L122.224 28.08L126.32 18.928H127.872ZM134.165 30.144C133.344 30.144 132.597 29.9573 131.925 29.584C131.264 29.2107 130.741 28.6827 130.357 28C129.984 27.3067 129.797 26.5067 129.797 25.6C129.797 24.704 129.989 23.9147 130.373 23.232C130.768 22.5387 131.301 22.0107 131.973 21.648C132.645 21.2747 133.397 21.088 134.229 21.088C135.061 21.088 135.813 21.2747 136.485 21.648C137.157 22.0107 137.685 22.5333 138.069 23.216C138.464 23.8987 138.661 24.6933 138.661 25.6C138.661 26.5067 138.459 27.3067 138.053 28C137.659 28.6827 137.12 29.2107 136.437 29.584C135.755 29.9573 134.997 30.144 134.165 30.144ZM134.165 28.864C134.688 28.864 135.179 28.7413 135.637 28.496C136.096 28.2507 136.464 27.8827 136.741 27.392C137.029 26.9013 137.173 26.304 137.173 25.6C137.173 24.896 137.035 24.2987 136.757 23.808C136.48 23.3173 136.117 22.9547 135.669 22.72C135.221 22.4747 134.736 22.352 134.213 22.352C133.68 22.352 133.189 22.4747 132.741 22.72C132.304 22.9547 131.952 23.3173 131.685 23.808C131.419 24.2987 131.285 24.896 131.285 25.6C131.285 26.3147 131.413 26.9173 131.669 27.408C131.936 27.8987 132.288 28.2667 132.725 28.512C133.163 28.7467 133.643 28.864 134.165 28.864ZM142.032 22.656C142.288 22.1547 142.65 21.7653 143.12 21.488C143.6 21.2107 144.181 21.072 144.864 21.072V22.576H144.48C142.848 22.576 142.032 23.4613 142.032 25.232V30H140.576V21.232H142.032V22.656ZM146.001 25.584C146.001 24.688 146.182 23.904 146.545 23.232C146.907 22.5493 147.403 22.0213 148.033 21.648C148.673 21.2747 149.382 21.088 150.161 21.088C150.929 21.088 151.595 21.2533 152.161 21.584C152.726 21.9147 153.147 22.3307 153.425 22.832V21.232H154.897V30H153.425V28.368C153.137 28.88 152.705 29.3067 152.129 29.648C151.563 29.9787 150.902 30.144 150.145 30.144C149.366 30.144 148.662 29.952 148.033 29.568C147.403 29.184 146.907 28.6453 146.545 27.952C146.182 27.2587 146.001 26.4693 146.001 25.584ZM153.425 25.6C153.425 24.9387 153.291 24.3627 153.025 23.872C152.758 23.3813 152.395 23.008 151.937 22.752C151.489 22.4853 150.993 22.352 150.449 22.352C149.905 22.352 149.409 22.48 148.961 22.736C148.513 22.992 148.155 23.3653 147.889 23.856C147.622 24.3467 147.489 24.9227 147.489 25.584C147.489 26.256 147.622 26.8427 147.889 27.344C148.155 27.8347 148.513 28.2133 148.961 28.48C149.409 28.736 149.905 28.864 150.449 28.864C150.993 28.864 151.489 28.736 151.937 28.48C152.395 28.2133 152.758 27.8347 153.025 27.344C153.291 26.8427 153.425 26.2613 153.425 25.6ZM165.357 25.28C165.357 25.5573 165.341 25.8507 165.309 26.16H158.301C158.354 27.024 158.648 27.7013 159.181 28.192C159.725 28.672 160.381 28.912 161.149 28.912C161.778 28.912 162.301 28.768 162.717 28.48C163.144 28.1813 163.442 27.7867 163.613 27.296H165.181C164.946 28.1387 164.477 28.8267 163.773 29.36C163.069 29.8827 162.194 30.144 161.149 30.144C160.317 30.144 159.57 29.9573 158.909 29.584C158.258 29.2107 157.746 28.6827 157.373 28C157 27.3067 156.813 26.5067 156.813 25.6C156.813 24.6933 156.994 23.8987 157.357 23.216C157.72 22.5333 158.226 22.0107 158.877 21.648C159.538 21.2747 160.296 21.088 161.149 21.088C161.981 21.088 162.717 21.2693 163.357 21.632C163.997 21.9947 164.488 22.496 164.829 23.136C165.181 23.7653 165.357 24.48 165.357 25.28ZM163.853 24.976C163.853 24.4213 163.73 23.9467 163.485 23.552C163.24 23.1467 162.904 22.8427 162.477 22.64C162.061 22.4267 161.597 22.32 161.085 22.32C160.349 22.32 159.72 22.5547 159.197 23.024C158.685 23.4933 158.392 24.144 158.317 24.976H163.853ZM170.383 30.144C169.711 30.144 169.108 30.032 168.575 29.808C168.042 29.5733 167.62 29.2533 167.311 28.848C167.002 28.432 166.831 27.9573 166.799 27.424H168.303C168.346 27.8613 168.548 28.2187 168.911 28.496C169.284 28.7733 169.77 28.912 170.367 28.912C170.922 28.912 171.359 28.7893 171.679 28.544C171.999 28.2987 172.159 27.9893 172.159 27.616C172.159 27.232 171.988 26.9493 171.647 26.768C171.306 26.576 170.778 26.3893 170.063 26.208C169.412 26.0373 168.879 25.8667 168.463 25.696C168.058 25.5147 167.706 25.2533 167.407 24.912C167.119 24.56 166.975 24.1013 166.975 23.536C166.975 23.088 167.108 22.6773 167.375 22.304C167.642 21.9307 168.02 21.6373 168.511 21.424C169.002 21.2 169.562 21.088 170.191 21.088C171.162 21.088 171.946 21.3333 172.543 21.824C173.14 22.3147 173.46 22.9867 173.503 23.84H172.047C172.015 23.3813 171.828 23.0133 171.487 22.736C171.156 22.4587 170.708 22.32 170.143 22.32C169.62 22.32 169.204 22.432 168.895 22.656C168.586 22.88 168.431 23.1733 168.431 23.536C168.431 23.824 168.522 24.064 168.703 24.256C168.895 24.4373 169.13 24.5867 169.407 24.704C169.695 24.8107 170.09 24.9333 170.591 25.072C171.22 25.2427 171.732 25.4133 172.127 25.584C172.522 25.744 172.858 25.9893 173.135 26.32C173.423 26.6507 173.572 27.0827 173.583 27.616C173.583 28.096 173.45 28.528 173.183 28.912C172.916 29.296 172.538 29.6 172.047 29.824C171.567 30.0373 171.012 30.144 170.383 30.144Z" fill="white"/>
</svg>
