<svg width="24" height="24" viewBox="0 0 24 24" fill="none" xmlns="http://www.w3.org/2000/svg">
<path d="M6.545 11.091C8.051 11.091 9.272 9.86999 9.272 8.36399C9.272 6.85799 8.052 5.63599 6.545 5.63599H2V18.363" stroke="white" stroke-width="1.5" stroke-linecap="round" stroke-linejoin="round"/>
<path d="M2 18.364H7.455C9.463 18.364 11.091 16.736 11.091 14.728C11.091 12.72 9.463 11.092 7.455 11.092H2" stroke="white" stroke-width="1.5" stroke-linecap="round" stroke-linejoin="round"/>
<path d="M15.6396 7.44995H20.1796" stroke="white" stroke-width="1.5" stroke-linecap="round" stroke-linejoin="round"/>
<path d="M20.8024 17.1649C20.0034 17.9639 18.9564 18.3629 17.9094 18.3629C15.6504 18.3629 13.8184 16.5309 13.8184 14.2719C13.8184 12.0129 15.6504 10.1809 17.9094 10.1809C20.1684 10.1809 22.0004 12.0129 22.0004 14.2729H13.8184" stroke="white" stroke-width="1.5" stroke-linecap="round" stroke-linejoin="round"/>
</svg>
